<?xml version="1.0" standalone="no"?>
<!DOCTYPE svg PUBLIC "-//W3C//DTD SVG 20010904//EN"
 "http://www.w3.org/TR/2001/REC-SVG-20010904/DTD/svg10.dtd">
<svg version="1.0" xmlns="http://www.w3.org/2000/svg"
 width="647.000000pt" height="360.000000pt" viewBox="0 0 647.000000 360.000000"
 preserveAspectRatio="xMidYMid meet">

<g transform="translate(0.000000,360.000000) scale(0.100000,-0.100000)"
fill="#000000" stroke="none">
<path d="M0 1800 l0 -1800 3235 0 3235 0 0 1800 0 1800 -3235 0 -3235 0 0
-1800z m4014 943 c4 -76 11 -219 16 -318 l9 -180 -32 -28 c-65 -57 -248 -135
-446 -188 -41 -11 -86 -27 -100 -35 -16 -9 -18 -13 -6 -9 11 4 85 22 165 40
169 39 265 72 374 128 l78 40 -3 135 c-3 97 -1 136 8 139 6 2 14 -9 17 -24 13
-63 58 -555 51 -561 -12 -12 -148 -19 -217 -11 -36 5 -99 20 -138 33 -159 56
-294 70 -365 37 -38 -17 -92 -69 -126 -120 l-15 -24 -22 35 c-33 52 -95 105
-139 117 -82 23 -175 10 -363 -50 -84 -27 -108 -31 -209 -30 -63 0 -119 5
-124 10 -7 7 -1 103 18 293 15 156 29 284 30 286 1 1 58 4 126 6 118 3 128 5
214 42 87 37 94 38 210 38 115 1 122 0 160 -26 63 -43 88 -88 95 -171 l7 -72
2 63 c1 74 23 121 78 173 55 52 94 73 221 118 160 57 284 125 351 192 31 30
59 56 62 57 4 1 10 -60 13 -135z m-1589 -630 c-15 -147 -31 -276 -36 -287 -10
-24 -6 54 17 294 16 168 35 293 42 272 2 -7 -8 -132 -23 -279z m1735 17 c10
-113 21 -234 24 -270 5 -63 5 -64 -9 -30 -7 19 -14 55 -14 80 -1 25 -10 128
-21 230 -11 102 -19 201 -19 220 l1 35 9 -30 c5 -16 18 -122 29 -235z m-996
-234 c42 -25 93 -85 110 -131 6 -17 12 -12 38 34 33 57 88 103 145 122 58 19
172 3 313 -43 102 -34 143 -42 222 -46 54 -2 110 0 127 6 35 12 45 4 56 -48 4
-19 11 -39 15 -45 5 -5 10 -26 12 -45 l3 -35 -909 -3 c-513 -1 -914 2 -919 7
-5 5 -4 25 2 47 5 22 14 57 20 79 l10 40 133 0 c128 0 137 1 244 38 190 65
295 72 378 23z m-2347 -467 c34 -12 90 -64 109 -101 21 -40 18 -126 -6 -173
l-20 -39 30 -31 c77 -79 80 -188 9 -269 -58 -65 -98 -77 -249 -74 l-125 3 -3
335 c-1 184 0 341 3 347 6 16 211 18 252 2z m757 -19 c65 -31 138 -106 172
-177 23 -49 28 -71 28 -138 0 -67 -4 -90 -27 -140 -35 -76 -95 -138 -172 -178
-53 -28 -70 -31 -145 -31 -71 -1 -94 4 -140 25 -82 39 -134 90 -174 171 -31
62 -36 80 -36 144 0 109 27 174 104 250 84 83 141 105 256 101 63 -3 97 -10
134 -27z m751 11 c138 -49 235 -184 235 -326 0 -29 -9 -82 -20 -117 -24 -78
-94 -154 -182 -199 -52 -26 -71 -30 -144 -31 -68 0 -93 5 -138 25 -110 51
-189 152 -204 263 -15 114 7 193 77 281 88 108 242 151 376 104z m423 -121 l3
-135 27 32 c15 17 67 79 116 137 l89 106 53 0 c30 0 54 -4 54 -9 0 -10 -44
-68 -109 -141 -26 -30 -69 -80 -94 -111 l-45 -56 33 -49 c18 -27 74 -109 124
-183 56 -81 89 -137 83 -143 -5 -5 -29 -8 -53 -6 -42 3 -45 5 -105 93 -139
201 -144 207 -160 195 -11 -10 -14 -41 -14 -139 0 -85 -4 -131 -12 -139 -14
-14 -74 -16 -83 -3 -8 13 -7 669 1 682 3 6 25 9 47 7 l42 -3 3 -135z m722 114
c76 -41 95 -75 95 -164 0 -56 -5 -83 -18 -104 l-18 -27 35 -39 c86 -96 68
-227 -43 -305 -43 -30 -43 -30 -184 -30 l-142 0 -3 335 c-1 184 0 341 3 347 3
9 36 13 116 13 101 0 116 -2 159 -26z m508 10 c114 -47 171 -175 123 -279 -17
-39 -91 -115 -111 -115 -6 0 19 -59 56 -131 36 -72 63 -138 60 -146 -4 -10
-19 -13 -53 -11 l-47 3 -66 130 c-65 128 -67 130 -103 133 l-36 3 -3 -133 -3
-133 -40 0 -40 0 -5 340 c-3 187 -4 343 -2 348 7 14 231 8 270 -9z m597 -34
l0 -45 -132 -3 -133 -3 0 -114 0 -115 74 0 c84 0 99 -10 94 -62 l-3 -33 -82
-3 -83 -3 0 -84 0 -84 133 -3 132 -3 0 -45 0 -45 -180 0 -180 0 -3 335 c-1
184 0 341 3 348 3 10 45 12 182 10 l178 -3 0 -45z m450 0 l0 -45 -132 -3 -133
-3 0 -114 0 -114 83 -3 82 -3 0 -45 0 -45 -82 -3 -83 -3 0 -84 0 -84 133 -3
132 -3 0 -45 0 -45 -180 0 -180 0 -3 335 c-1 184 0 341 3 348 3 10 45 12 182
10 l178 -3 0 -45z m535 41 c0 -6 -46 -99 -102 -208 -55 -109 -122 -240 -148
-290 l-48 -93 137 0 c147 0 161 -4 161 -50 0 -14 -5 -31 -12 -38 -15 -15 -424
-17 -433 -2 -3 5 25 70 63 142 96 183 222 434 222 442 0 3 -64 7 -142 8 l-143
3 -3 33 c-6 64 -14 62 228 62 132 0 220 -4 220 -9z m445 -41 l0 -45 -132 -3
-133 -3 0 -114 0 -114 83 -3 82 -3 0 -45 0 -45 -82 -3 -83 -3 0 -84 0 -84 133
-3 132 -3 0 -45 0 -45 -180 0 -180 0 -3 335 c-1 184 0 341 3 348 3 10 45 12
182 10 l178 -3 0 -45z"/>
<path d="M660 1245 l0 -95 55 0 c60 0 109 19 119 45 8 21 8 79 0 100 -10 26
-59 45 -119 45 l-55 0 0 -95z"/>
<path d="M660 945 l0 -105 76 0 c84 0 125 16 143 57 26 56 1 124 -50 142 -18
6 -63 11 -100 11 l-69 0 0 -105z"/>
<path d="M1336 1324 c-99 -36 -156 -121 -156 -233 1 -195 202 -309 374 -213
131 74 162 258 63 377 -61 75 -184 105 -281 69z"/>
<path d="M2113 1322 c-59 -24 -101 -65 -129 -125 -55 -120 -13 -255 102 -322
39 -23 59 -27 119 -28 120 -1 211 60 241 162 34 119 -6 237 -101 296 -61 38
-165 45 -232 17z"/>
<path d="M3282 1244 l1 -96 75 4 c91 4 112 23 112 97 0 71 -26 91 -118 91
l-71 0 1 -96z"/>
<path d="M3280 945 l0 -105 80 0 c119 0 160 27 160 105 0 77 -44 105 -165 105
l-75 0 0 -105z"/>
<path d="M3800 1224 l0 -116 81 4 c77 3 82 5 110 36 49 54 33 153 -28 181 -13
6 -55 11 -93 11 l-70 0 0 -116z"/>
</g>
</svg>
